<svg width="240" height="60" viewBox="0 0 240 60" fill="none" xmlns="http://www.w3.org/2000/svg">
  <g clip-path="url(#clip0)">
    <path
      d="M0.624 50.808C0.624 50.2213 0.725333 49.6667 0.928 49.144C1.13067 48.6213 1.41333 48.168 1.776 47.784C2.14933 47.3893 2.592 47.08 3.104 46.856C3.616 46.632 4.18133 46.52 4.8 46.52C5.58933 46.52 6.27733 46.7013 6.864 47.064C7.45067 47.416 7.89333 47.896 8.192 48.504L7.136 48.84C6.90133 48.4133 6.57067 48.0827 6.144 47.848C5.728 47.6027 5.264 47.48 4.752 47.48C4.32533 47.48 3.92533 47.5653 3.552 47.736C3.18933 47.9067 2.86933 48.1413 2.592 48.44C2.32533 48.728 2.112 49.0747 1.952 49.48C1.80267 49.8853 1.728 50.328 1.728 50.808C1.728 51.2773 1.808 51.72 1.968 52.136C2.128 52.552 2.34667 52.9147 2.624 53.224C2.90133 53.5227 3.22133 53.7627 3.584 53.944C3.95733 54.1147 4.352 54.2 4.768 54.2C5.03467 54.2 5.296 54.1627 5.552 54.088C5.81867 54.0133 6.064 53.912 6.288 53.784C6.512 53.6453 6.704 53.4907 6.864 53.32C7.024 53.1493 7.136 52.968 7.2 52.776L8.272 53.096C8.15467 53.3947 7.984 53.672 7.76 53.928C7.536 54.1733 7.26933 54.392 6.96 54.584C6.66133 54.7653 6.32533 54.904 5.952 55C5.58933 55.1067 5.21067 55.16 4.816 55.16C4.208 55.16 3.648 55.048 3.136 54.824C2.624 54.5893 2.18133 54.2747 1.808 53.88C1.43467 53.4747 1.14133 53.0107 0.928 52.488C0.725333 51.9653 0.624 51.4053 0.624 50.808ZM14.1413 47.624C13.4053 47.6453 12.7653 47.848 12.2213 48.232C11.6773 48.616 11.2933 49.144 11.0693 49.816V55H9.98125V46.664H11.0053V48.664C11.3146 48.024 11.7306 47.5227 12.2533 47.16C12.7759 46.7973 13.3359 46.616 13.9333 46.616C14.0186 46.616 14.0879 46.6213 14.1413 46.632V47.624ZM18.7688 55.16C18.1608 55.16 17.6008 55.048 17.0888 54.824C16.5874 54.5893 16.1501 54.2747 15.7768 53.88C15.4034 53.4747 15.1101 53.0107 14.8968 52.488C14.6941 51.9653 14.5928 51.4053 14.5928 50.808C14.5928 50.2213 14.6941 49.672 14.8968 49.16C15.1101 48.6373 15.3981 48.184 15.7608 47.8C16.1341 47.4053 16.5768 47.096 17.0888 46.872C17.6008 46.6373 18.1554 46.52 18.7528 46.52C19.3608 46.52 19.9154 46.6373 20.4168 46.872C20.9288 47.096 21.3661 47.4053 21.7288 47.8C22.0914 48.1947 22.3741 48.648 22.5768 49.16C22.7794 49.672 22.8808 50.216 22.8808 50.792C22.8808 50.8773 22.8808 50.9627 22.8808 51.048C22.8808 51.1333 22.8754 51.192 22.8648 51.224H15.7288C15.7608 51.672 15.8621 52.088 16.0328 52.472C16.2141 52.8453 16.4434 53.1707 16.7208 53.448C16.9981 53.7253 17.3128 53.944 17.6648 54.104C18.0274 54.2533 18.4114 54.328 18.8168 54.328C19.0834 54.328 19.3501 54.2907 19.6168 54.216C19.8834 54.1413 20.1288 54.04 20.3528 53.912C20.5768 53.784 20.7794 53.6293 20.9608 53.448C21.1421 53.256 21.2808 53.048 21.3768 52.824L22.3208 53.08C22.1928 53.3893 22.0114 53.672 21.7768 53.928C21.5421 54.1733 21.2701 54.392 20.9608 54.584C20.6514 54.7653 20.3101 54.904 19.9368 55C19.5634 55.1067 19.1741 55.16 18.7688 55.16ZM21.8408 50.392C21.8088 49.944 21.7021 49.5387 21.5208 49.176C21.3501 48.8027 21.1261 48.4827 20.8488 48.216C20.5821 47.9493 20.2674 47.7413 19.9048 47.592C19.5528 47.4427 19.1741 47.368 18.7688 47.368C18.3634 47.368 17.9794 47.4427 17.6168 47.592C17.2541 47.7413 16.9341 47.9493 16.6568 48.216C16.3901 48.4827 16.1714 48.8027 16.0008 49.176C15.8408 49.5493 15.7448 49.9547 15.7128 50.392H21.8408ZM26.6554 55.16C26.2607 55.16 25.8927 55.096 25.5514 54.968C25.2207 54.8293 24.9274 54.6427 24.6714 54.408C24.426 54.1733 24.234 53.9013 24.0954 53.592C23.9567 53.272 23.8874 52.9307 23.8874 52.568C23.8874 52.2053 23.9727 51.8693 24.1434 51.56C24.314 51.2507 24.554 50.984 24.8634 50.76C25.1727 50.536 25.5407 50.3653 25.9674 50.248C26.394 50.12 26.8634 50.056 27.3754 50.056C27.802 50.056 28.234 50.0933 28.6714 50.168C29.1087 50.2427 29.498 50.3493 29.8394 50.488V49.736C29.8394 49 29.6314 48.4187 29.2154 47.992C28.7994 47.5547 28.2234 47.336 27.4874 47.336C27.0607 47.336 26.6234 47.4213 26.1754 47.592C25.7274 47.7627 25.274 48.008 24.8154 48.328L24.4314 47.608C25.5087 46.8827 26.554 46.52 27.5674 46.52C28.6127 46.52 29.434 46.8133 30.0314 47.4C30.6287 47.9867 30.9274 48.7973 30.9274 49.832V53.592C30.9274 53.8907 31.0607 54.04 31.3274 54.04V55C31.146 55.032 31.0074 55.048 30.9114 55.048C30.634 55.048 30.4154 54.9787 30.2554 54.84C30.106 54.7013 30.026 54.5093 30.0154 54.264L29.9834 53.608C29.5994 54.1093 29.114 54.4933 28.5274 54.76C27.9514 55.0267 27.3274 55.16 26.6554 55.16ZM26.9114 54.328C27.4767 54.328 27.994 54.2213 28.4634 54.008C28.9434 53.7947 29.306 53.512 29.5514 53.16C29.6474 53.064 29.7167 52.9627 29.7594 52.856C29.8127 52.7387 29.8394 52.632 29.8394 52.536V51.176C29.4767 51.0373 29.098 50.9307 28.7034 50.856C28.3194 50.7813 27.9247 50.744 27.5194 50.744C26.7514 50.744 26.1274 50.904 25.6474 51.224C25.1674 51.544 24.9274 51.9653 24.9274 52.488C24.9274 52.744 24.9754 52.984 25.0714 53.208C25.178 53.432 25.3167 53.6293 25.4874 53.8C25.6687 53.96 25.882 54.088 26.1274 54.184C26.3727 54.28 26.634 54.328 26.9114 54.328ZM37.2156 54.6C37.1516 54.632 37.0556 54.6747 36.9276 54.728C36.8103 54.7813 36.6716 54.8347 36.5116 54.888C36.3516 54.9413 36.1703 54.9893 35.9676 55.032C35.765 55.0747 35.5516 55.096 35.3276 55.096C35.093 55.096 34.869 55.064 34.6556 55C34.4423 54.936 34.2556 54.84 34.0956 54.712C33.9356 54.5733 33.8076 54.4027 33.7116 54.2C33.6156 53.9973 33.5676 53.7627 33.5676 53.496V47.528H32.4156V46.664H33.5676V43.848H34.6556V46.664H36.5756V47.528H34.6556V53.192C34.677 53.5013 34.7836 53.7307 34.9756 53.88C35.1783 54.0187 35.4076 54.088 35.6636 54.088C35.973 54.088 36.245 54.04 36.4796 53.944C36.7143 53.8373 36.8636 53.7627 36.9276 53.72L37.2156 54.6ZM38.575 55V46.664H39.663V55H38.575ZM38.575 44.92V43.32H39.663V44.92H38.575ZM49.0674 55H47.9794V50.344C47.9794 49.352 47.83 48.632 47.5314 48.184C47.2434 47.736 46.7954 47.512 46.1874 47.512C45.8674 47.512 45.5474 47.5707 45.2274 47.688C44.9074 47.8053 44.6087 47.9707 44.3314 48.184C44.0647 48.3973 43.8247 48.6533 43.6114 48.952C43.398 49.24 43.2434 49.5547 43.1474 49.896V55H42.0594V46.664H43.0514V48.552C43.3927 47.944 43.878 47.4533 44.5074 47.08C45.1474 46.7067 45.8407 46.52 46.5874 46.52C47.046 46.52 47.4354 46.6053 47.7554 46.776C48.0754 46.9467 48.3314 47.1867 48.5234 47.496C48.7154 47.8053 48.854 48.184 48.9394 48.632C49.0247 49.08 49.0674 49.576 49.0674 50.12V55ZM54.7315 55.112C54.1555 55.112 53.6275 54.9947 53.1475 54.76C52.6782 54.5147 52.2675 54.1947 51.9155 53.8C51.5742 53.4053 51.3075 52.952 51.1155 52.44C50.9235 51.928 50.8275 51.4 50.8275 50.856C50.8275 50.28 50.9182 49.7307 51.0995 49.208C51.2915 48.6747 51.5582 48.2107 51.8995 47.816C52.2408 47.4213 52.6462 47.1067 53.1155 46.872C53.5955 46.6373 54.1235 46.52 54.6995 46.52C55.4142 46.52 56.0328 46.7013 56.5555 47.064C57.0782 47.416 57.5262 47.864 57.8995 48.408V46.664H58.8755V55.032C58.8755 55.608 58.7635 56.1147 58.5395 56.552C58.3262 57 58.0328 57.3733 57.6595 57.672C57.2968 57.9707 56.8648 58.1947 56.3635 58.344C55.8728 58.4933 55.3502 58.568 54.7955 58.568C53.8355 58.568 53.0622 58.3973 52.4755 58.056C51.8888 57.7147 51.4142 57.256 51.0515 56.68L51.7235 56.152C52.0542 56.6853 52.4915 57.0747 53.0355 57.32C53.5795 57.576 54.1662 57.704 54.7955 57.704C55.2008 57.704 55.5848 57.6453 55.9475 57.528C56.3102 57.4213 56.6248 57.256 56.8915 57.032C57.1688 56.8187 57.3875 56.5413 57.5475 56.2C57.7075 55.8693 57.7875 55.48 57.7875 55.032V53.384C57.4675 53.9173 57.0302 54.3387 56.4755 54.648C55.9208 54.9573 55.3395 55.112 54.7315 55.112ZM55.0355 54.2C55.3555 54.2 55.6702 54.1413 55.9795 54.024C56.2888 53.9067 56.5662 53.752 56.8115 53.56C57.0675 53.3573 57.2808 53.1333 57.4515 52.888C57.6222 52.6427 57.7342 52.392 57.7875 52.136V49.56C57.6702 49.2613 57.5102 48.984 57.3075 48.728C57.1048 48.472 56.8755 48.2533 56.6195 48.072C56.3635 47.8907 56.0862 47.7467 55.7875 47.64C55.4995 47.5333 55.2062 47.48 54.9075 47.48C54.4382 47.48 54.0168 47.5813 53.6435 47.784C53.2808 47.976 52.9715 48.232 52.7155 48.552C52.4595 48.872 52.2622 49.2347 52.1235 49.64C51.9955 50.0453 51.9315 50.456 51.9315 50.872C51.9315 51.32 52.0115 51.7467 52.1715 52.152C52.3315 52.5573 52.5502 52.9147 52.8275 53.224C53.1155 53.5227 53.4462 53.7627 53.8195 53.944C54.1928 54.1147 54.5982 54.2 55.0355 54.2ZM65.4043 43.32H66.4923V53.112C66.4923 53.4213 66.5776 53.6667 66.7483 53.848C66.9189 54.0187 67.1589 54.104 67.4683 54.104C67.5856 54.104 67.7243 54.088 67.8843 54.056C68.0443 54.024 68.1936 53.9813 68.3323 53.928L68.5243 54.808C68.3216 54.8933 68.0709 54.9627 67.7723 55.016C67.4843 55.0693 67.2336 55.096 67.0203 55.096C66.5189 55.096 66.1243 54.9573 65.8363 54.68C65.5483 54.392 65.4043 53.992 65.4043 53.48V43.32ZM69.7156 55V46.664H70.8036V55H69.7156ZM69.7156 44.92V43.32H70.8036V44.92H69.7156ZM85.6 55H84.512V50.344C84.512 49.3733 84.3573 48.6587 84.048 48.2C83.7387 47.7413 83.28 47.512 82.672 47.512C82.352 47.512 82.048 47.5707 81.76 47.688C81.4827 47.8053 81.2213 47.9707 80.976 48.184C80.7413 48.3973 80.5333 48.6533 80.352 48.952C80.1707 49.24 80.032 49.56 79.936 49.912V55H78.848V50.344C78.848 49.352 78.6987 48.632 78.4 48.184C78.1013 47.736 77.6427 47.512 77.024 47.512C76.3947 47.512 75.8347 47.7307 75.344 48.168C74.8533 48.6053 74.5013 49.1813 74.288 49.896V55H73.2V46.664H74.192V48.552C74.5333 47.912 74.9813 47.416 75.536 47.064C76.0907 46.7013 76.704 46.52 77.376 46.52C78.08 46.52 78.64 46.7173 79.056 47.112C79.4827 47.5067 79.744 48.024 79.84 48.664C80.6187 47.2347 81.6907 46.52 83.056 46.52C83.5253 46.52 83.92 46.6053 84.24 46.776C84.5707 46.9467 84.832 47.192 85.024 47.512C85.2267 47.8213 85.3707 48.2 85.456 48.648C85.552 49.0853 85.6 49.576 85.6 50.12V55ZM87.9031 55V46.664H88.9911V55H87.9031ZM87.9031 44.92V43.32H88.9911V44.92H87.9031ZM95.3875 54.6C95.3235 54.632 95.2275 54.6747 95.0995 54.728C94.9822 54.7813 94.8435 54.8347 94.6835 54.888C94.5235 54.9413 94.3422 54.9893 94.1395 55.032C93.9368 55.0747 93.7235 55.096 93.4995 55.096C93.2648 55.096 93.0408 55.064 92.8275 55C92.6142 54.936 92.4275 54.84 92.2675 54.712C92.1075 54.5733 91.9795 54.4027 91.8835 54.2C91.7875 53.9973 91.7395 53.7627 91.7395 53.496V47.528H90.5875V46.664H91.7395V43.848H92.8275V46.664H94.7475V47.528H92.8275V53.192C92.8488 53.5013 92.9555 53.7307 93.1475 53.88C93.3502 54.0187 93.5795 54.088 93.8355 54.088C94.1448 54.088 94.4168 54.04 94.6515 53.944C94.8862 53.8373 95.0355 53.7627 95.0995 53.72L95.3875 54.6ZM96.7949 43.32H97.8829V53.112C97.8829 53.4213 97.9682 53.6667 98.1389 53.848C98.3095 54.0187 98.5495 54.104 98.8589 54.104C98.9762 54.104 99.1149 54.088 99.2749 54.056C99.4349 54.024 99.5842 53.9813 99.7229 53.928L99.9149 54.808C99.7122 54.8933 99.4615 54.9627 99.1629 55.016C98.8749 55.0693 98.6242 55.096 98.4109 55.096C97.9095 55.096 97.5149 54.9573 97.2269 54.68C96.9389 54.392 96.7949 53.992 96.7949 53.48V43.32ZM104.706 55.16C104.098 55.16 103.538 55.048 103.026 54.824C102.525 54.5893 102.088 54.2747 101.714 53.88C101.341 53.4747 101.048 53.0107 100.834 52.488C100.632 51.9653 100.53 51.4053 100.53 50.808C100.53 50.2213 100.632 49.672 100.834 49.16C101.048 48.6373 101.336 48.184 101.698 47.8C102.072 47.4053 102.514 47.096 103.026 46.872C103.538 46.6373 104.093 46.52 104.69 46.52C105.298 46.52 105.853 46.6373 106.354 46.872C106.866 47.096 107.304 47.4053 107.666 47.8C108.029 48.1947 108.312 48.648 108.514 49.16C108.717 49.672 108.818 50.216 108.818 50.792C108.818 50.8773 108.818 50.9627 108.818 51.048C108.818 51.1333 108.813 51.192 108.802 51.224H101.666C101.698 51.672 101.8 52.088 101.97 52.472C102.152 52.8453 102.381 53.1707 102.658 53.448C102.936 53.7253 103.25 53.944 103.602 54.104C103.965 54.2533 104.349 54.328 104.754 54.328C105.021 54.328 105.288 54.2907 105.554 54.216C105.821 54.1413 106.066 54.04 106.29 53.912C106.514 53.784 106.717 53.6293 106.898 53.448C107.08 53.256 107.218 53.048 107.314 52.824L108.258 53.08C108.13 53.3893 107.949 53.672 107.714 53.928C107.48 54.1733 107.208 54.392 106.898 54.584C106.589 54.7653 106.248 54.904 105.874 55C105.501 55.1067 105.112 55.16 104.706 55.16ZM107.778 50.392C107.746 49.944 107.64 49.5387 107.458 49.176C107.288 48.8027 107.064 48.4827 106.786 48.216C106.52 47.9493 106.205 47.7413 105.842 47.592C105.49 47.4427 105.112 47.368 104.706 47.368C104.301 47.368 103.917 47.4427 103.554 47.592C103.192 47.7413 102.872 47.9493 102.594 48.216C102.328 48.4827 102.109 48.8027 101.938 49.176C101.778 49.5493 101.682 49.9547 101.65 50.392H107.778ZM113.265 55.16C112.614 55.16 111.98 55.0533 111.361 54.84C110.742 54.6267 110.209 54.3173 109.761 53.912L110.257 53.176C110.726 53.56 111.201 53.848 111.681 54.04C112.172 54.232 112.694 54.328 113.249 54.328C113.921 54.328 114.454 54.1947 114.849 53.928C115.254 53.6507 115.457 53.2613 115.457 52.76C115.457 52.5253 115.404 52.3333 115.297 52.184C115.19 52.024 115.03 51.8853 114.817 51.768C114.614 51.6507 114.353 51.5493 114.033 51.464C113.724 51.368 113.361 51.272 112.945 51.176C112.465 51.0587 112.049 50.9413 111.697 50.824C111.345 50.7067 111.052 50.5733 110.817 50.424C110.593 50.2747 110.422 50.0933 110.305 49.88C110.198 49.656 110.145 49.3787 110.145 49.048C110.145 48.632 110.225 48.264 110.385 47.944C110.556 47.624 110.78 47.3627 111.057 47.16C111.345 46.9467 111.676 46.7867 112.049 46.68C112.433 46.5733 112.838 46.52 113.265 46.52C113.905 46.52 114.486 46.6267 115.009 46.84C115.532 47.0427 115.953 47.3147 116.273 47.656L115.745 48.296C115.436 47.976 115.057 47.736 114.609 47.576C114.172 47.416 113.713 47.336 113.233 47.336C112.945 47.336 112.678 47.368 112.433 47.432C112.188 47.4853 111.969 47.576 111.777 47.704C111.596 47.832 111.452 47.9973 111.345 48.2C111.238 48.392 111.185 48.6213 111.185 48.888C111.185 49.112 111.222 49.2933 111.297 49.432C111.372 49.5707 111.494 49.6933 111.665 49.8C111.836 49.896 112.049 49.9867 112.305 50.072C112.572 50.1467 112.892 50.2267 113.265 50.312C113.798 50.44 114.268 50.568 114.673 50.696C115.078 50.824 115.414 50.9733 115.681 51.144C115.958 51.3147 116.166 51.5227 116.305 51.768C116.444 52.0133 116.513 52.312 116.513 52.664C116.513 53.432 116.22 54.04 115.633 54.488C115.046 54.936 114.257 55.16 113.265 55.16ZM121.062 55.16C120.411 55.16 119.776 55.0533 119.158 54.84C118.539 54.6267 118.006 54.3173 117.558 53.912L118.054 53.176C118.523 53.56 118.998 53.848 119.478 54.04C119.968 54.232 120.491 54.328 121.046 54.328C121.718 54.328 122.251 54.1947 122.646 53.928C123.051 53.6507 123.254 53.2613 123.254 52.76C123.254 52.5253 123.2 52.3333 123.094 52.184C122.987 52.024 122.827 51.8853 122.614 51.768C122.411 51.6507 122.15 51.5493 121.83 51.464C121.52 51.368 121.158 51.272 120.742 51.176C120.262 51.0587 119.846 50.9413 119.494 50.824C119.142 50.7067 118.848 50.5733 118.614 50.424C118.39 50.2747 118.219 50.0933 118.102 49.88C117.995 49.656 117.942 49.3787 117.942 49.048C117.942 48.632 118.022 48.264 118.182 47.944C118.352 47.624 118.576 47.3627 118.854 47.16C119.142 46.9467 119.472 46.7867 119.846 46.68C120.23 46.5733 120.635 46.52 121.062 46.52C121.702 46.52 122.283 46.6267 122.806 46.84C123.328 47.0427 123.75 47.3147 124.07 47.656L123.542 48.296C123.232 47.976 122.854 47.736 122.406 47.576C121.968 47.416 121.51 47.336 121.03 47.336C120.742 47.336 120.475 47.368 120.23 47.432C119.984 47.4853 119.766 47.576 119.574 47.704C119.392 47.832 119.248 47.9973 119.142 48.2C119.035 48.392 118.982 48.6213 118.982 48.888C118.982 49.112 119.019 49.2933 119.094 49.432C119.168 49.5707 119.291 49.6933 119.462 49.8C119.632 49.896 119.846 49.9867 120.102 50.072C120.368 50.1467 120.688 50.2267 121.062 50.312C121.595 50.44 122.064 50.568 122.47 50.696C122.875 50.824 123.211 50.9733 123.478 51.144C123.755 51.3147 123.963 51.5227 124.102 51.768C124.24 52.0133 124.31 52.312 124.31 52.664C124.31 53.432 124.016 54.04 123.43 54.488C122.843 54.936 122.054 55.16 121.062 55.16ZM134.249 55.16C133.587 55.16 132.979 54.9947 132.425 54.664C131.881 54.3333 131.454 53.9067 131.145 53.384V55H130.169V43.32H131.257V48.408C131.63 47.8427 132.078 47.3893 132.601 47.048C133.123 46.696 133.731 46.52 134.425 46.52C135.011 46.52 135.534 46.6427 135.993 46.888C136.462 47.1333 136.857 47.464 137.177 47.88C137.507 48.2853 137.758 48.7493 137.929 49.272C138.11 49.784 138.201 50.312 138.201 50.856C138.201 51.4427 138.099 51.9973 137.897 52.52C137.694 53.0427 137.417 53.5013 137.065 53.896C136.713 54.28 136.291 54.5893 135.801 54.824C135.321 55.048 134.803 55.16 134.249 55.16ZM133.993 54.2C134.451 54.2 134.867 54.1093 135.241 53.928C135.625 53.736 135.95 53.4853 136.217 53.176C136.494 52.856 136.707 52.4987 136.857 52.104C137.017 51.6987 137.097 51.2827 137.097 50.856C137.097 50.4187 137.022 49.9973 136.873 49.592C136.734 49.1867 136.531 48.8293 136.265 48.52C136.009 48.2 135.694 47.9493 135.321 47.768C134.958 47.576 134.558 47.48 134.121 47.48C133.79 47.48 133.481 47.5387 133.193 47.656C132.905 47.7627 132.638 47.912 132.393 48.104C132.147 48.296 131.929 48.52 131.737 48.776C131.545 49.0213 131.385 49.2827 131.257 49.56V52.152C131.299 52.44 131.411 52.712 131.593 52.968C131.785 53.2133 132.009 53.4267 132.265 53.608C132.531 53.7893 132.814 53.9333 133.113 54.04C133.422 54.1467 133.715 54.2 133.993 54.2ZM142.652 55.16C141.745 55.16 141.068 54.8613 140.62 54.264C140.182 53.656 139.964 52.7547 139.964 51.56V46.664H141.052V51.368C141.052 53.256 141.697 54.2 142.988 54.2C143.308 54.2 143.622 54.1467 143.932 54.04C144.241 53.9333 144.524 53.7787 144.78 53.576C145.046 53.3733 145.281 53.1333 145.484 52.856C145.697 52.5787 145.868 52.264 145.996 51.912V46.664H147.084V53.592C147.084 53.8907 147.212 54.04 147.468 54.04V55C147.34 55.0213 147.233 55.032 147.148 55.032C147.073 55.032 147.02 55.032 146.988 55.032C146.732 55.0213 146.524 54.9307 146.364 54.76C146.204 54.5893 146.124 54.36 146.124 54.072V53.112C145.761 53.7627 145.265 54.2693 144.636 54.632C144.017 54.984 143.356 55.16 142.652 55.16ZM152.312 55.16C151.661 55.16 151.026 55.0533 150.408 54.84C149.789 54.6267 149.256 54.3173 148.808 53.912L149.304 53.176C149.773 53.56 150.248 53.848 150.728 54.04C151.218 54.232 151.741 54.328 152.296 54.328C152.968 54.328 153.501 54.1947 153.896 53.928C154.301 53.6507 154.504 53.2613 154.504 52.76C154.504 52.5253 154.45 52.3333 154.344 52.184C154.237 52.024 154.077 51.8853 153.864 51.768C153.661 51.6507 153.4 51.5493 153.08 51.464C152.77 51.368 152.408 51.272 151.992 51.176C151.512 51.0587 151.096 50.9413 150.744 50.824C150.392 50.7067 150.098 50.5733 149.864 50.424C149.64 50.2747 149.469 50.0933 149.352 49.88C149.245 49.656 149.192 49.3787 149.192 49.048C149.192 48.632 149.272 48.264 149.432 47.944C149.602 47.624 149.826 47.3627 150.104 47.16C150.392 46.9467 150.722 46.7867 151.096 46.68C151.48 46.5733 151.885 46.52 152.312 46.52C152.952 46.52 153.533 46.6267 154.056 46.84C154.578 47.0427 155 47.3147 155.32 47.656L154.792 48.296C154.482 47.976 154.104 47.736 153.656 47.576C153.218 47.416 152.76 47.336 152.28 47.336C151.992 47.336 151.725 47.368 151.48 47.432C151.234 47.4853 151.016 47.576 150.824 47.704C150.642 47.832 150.498 47.9973 150.392 48.2C150.285 48.392 150.232 48.6213 150.232 48.888C150.232 49.112 150.269 49.2933 150.344 49.432C150.418 49.5707 150.541 49.6933 150.712 49.8C150.882 49.896 151.096 49.9867 151.352 50.072C151.618 50.1467 151.938 50.2267 152.312 50.312C152.845 50.44 153.314 50.568 153.72 50.696C154.125 50.824 154.461 50.9733 154.728 51.144C155.005 51.3147 155.213 51.5227 155.352 51.768C155.49 52.0133 155.56 52.312 155.56 52.664C155.56 53.432 155.266 54.04 154.68 54.488C154.093 54.936 153.304 55.16 152.312 55.16ZM157.341 55V46.664H158.429V55H157.341ZM157.341 44.92V43.32H158.429V44.92H157.341ZM167.833 55H166.745V50.344C166.745 49.352 166.596 48.632 166.297 48.184C166.009 47.736 165.561 47.512 164.953 47.512C164.633 47.512 164.313 47.5707 163.993 47.688C163.673 47.8053 163.374 47.9707 163.097 48.184C162.83 48.3973 162.59 48.6533 162.377 48.952C162.164 49.24 162.009 49.5547 161.913 49.896V55H160.825V46.664H161.817V48.552C162.158 47.944 162.644 47.4533 163.273 47.08C163.913 46.7067 164.606 46.52 165.353 46.52C165.812 46.52 166.201 46.6053 166.521 46.776C166.841 46.9467 167.097 47.1867 167.289 47.496C167.481 47.8053 167.62 48.184 167.705 48.632C167.79 49.08 167.833 49.576 167.833 50.12V55ZM173.753 55.16C173.145 55.16 172.585 55.048 172.073 54.824C171.572 54.5893 171.134 54.2747 170.761 53.88C170.388 53.4747 170.094 53.0107 169.881 52.488C169.678 51.9653 169.577 51.4053 169.577 50.808C169.577 50.2213 169.678 49.672 169.881 49.16C170.094 48.6373 170.382 48.184 170.745 47.8C171.118 47.4053 171.561 47.096 172.073 46.872C172.585 46.6373 173.14 46.52 173.737 46.52C174.345 46.52 174.9 46.6373 175.401 46.872C175.913 47.096 176.35 47.4053 176.713 47.8C177.076 48.1947 177.358 48.648 177.561 49.16C177.764 49.672 177.865 50.216 177.865 50.792C177.865 50.8773 177.865 50.9627 177.865 51.048C177.865 51.1333 177.86 51.192 177.849 51.224H170.713C170.745 51.672 170.846 52.088 171.017 52.472C171.198 52.8453 171.428 53.1707 171.705 53.448C171.982 53.7253 172.297 53.944 172.649 54.104C173.012 54.2533 173.396 54.328 173.801 54.328C174.068 54.328 174.334 54.2907 174.601 54.216C174.868 54.1413 175.113 54.04 175.337 53.912C175.561 53.784 175.764 53.6293 175.945 53.448C176.126 53.256 176.265 53.048 176.361 52.824L177.305 53.08C177.177 53.3893 176.996 53.672 176.761 53.928C176.526 54.1733 176.254 54.392 175.945 54.584C175.636 54.7653 175.294 54.904 174.921 55C174.548 55.1067 174.158 55.16 173.753 55.16ZM176.825 50.392C176.793 49.944 176.686 49.5387 176.505 49.176C176.334 48.8027 176.11 48.4827 175.833 48.216C175.566 47.9493 175.252 47.7413 174.889 47.592C174.537 47.4427 174.158 47.368 173.753 47.368C173.348 47.368 172.964 47.4427 172.601 47.592C172.238 47.7413 171.918 47.9493 171.641 48.216C171.374 48.4827 171.156 48.8027 170.985 49.176C170.825 49.5493 170.729 49.9547 170.697 50.392H176.825ZM182.312 55.16C181.661 55.16 181.026 55.0533 180.408 54.84C179.789 54.6267 179.256 54.3173 178.808 53.912L179.304 53.176C179.773 53.56 180.248 53.848 180.728 54.04C181.218 54.232 181.741 54.328 182.296 54.328C182.968 54.328 183.501 54.1947 183.896 53.928C184.301 53.6507 184.504 53.2613 184.504 52.76C184.504 52.5253 184.45 52.3333 184.344 52.184C184.237 52.024 184.077 51.8853 183.864 51.768C183.661 51.6507 183.4 51.5493 183.08 51.464C182.77 51.368 182.408 51.272 181.992 51.176C181.512 51.0587 181.096 50.9413 180.744 50.824C180.392 50.7067 180.098 50.5733 179.864 50.424C179.64 50.2747 179.469 50.0933 179.352 49.88C179.245 49.656 179.192 49.3787 179.192 49.048C179.192 48.632 179.272 48.264 179.432 47.944C179.602 47.624 179.826 47.3627 180.104 47.16C180.392 46.9467 180.722 46.7867 181.096 46.68C181.48 46.5733 181.885 46.52 182.312 46.52C182.952 46.52 183.533 46.6267 184.056 46.84C184.578 47.0427 185 47.3147 185.32 47.656L184.792 48.296C184.482 47.976 184.104 47.736 183.656 47.576C183.218 47.416 182.76 47.336 182.28 47.336C181.992 47.336 181.725 47.368 181.48 47.432C181.234 47.4853 181.016 47.576 180.824 47.704C180.642 47.832 180.498 47.9973 180.392 48.2C180.285 48.392 180.232 48.6213 180.232 48.888C180.232 49.112 180.269 49.2933 180.344 49.432C180.418 49.5707 180.541 49.6933 180.712 49.8C180.882 49.896 181.096 49.9867 181.352 50.072C181.618 50.1467 181.938 50.2267 182.312 50.312C182.845 50.44 183.314 50.568 183.72 50.696C184.125 50.824 184.461 50.9733 184.728 51.144C185.005 51.3147 185.213 51.5227 185.352 51.768C185.49 52.0133 185.56 52.312 185.56 52.664C185.56 53.432 185.266 54.04 184.68 54.488C184.093 54.936 183.304 55.16 182.312 55.16ZM190.109 55.16C189.458 55.16 188.823 55.0533 188.205 54.84C187.586 54.6267 187.053 54.3173 186.605 53.912L187.101 53.176C187.57 53.56 188.045 53.848 188.525 54.04C189.015 54.232 189.538 54.328 190.093 54.328C190.765 54.328 191.298 54.1947 191.693 53.928C192.098 53.6507 192.301 53.2613 192.301 52.76C192.301 52.5253 192.247 52.3333 192.141 52.184C192.034 52.024 191.874 51.8853 191.661 51.768C191.458 51.6507 191.197 51.5493 190.877 51.464C190.567 51.368 190.205 51.272 189.789 51.176C189.309 51.0587 188.893 50.9413 188.541 50.824C188.189 50.7067 187.895 50.5733 187.661 50.424C187.437 50.2747 187.266 50.0933 187.149 49.88C187.042 49.656 186.989 49.3787 186.989 49.048C186.989 48.632 187.069 48.264 187.229 47.944C187.399 47.624 187.623 47.3627 187.901 47.16C188.189 46.9467 188.519 46.7867 188.893 46.68C189.277 46.5733 189.682 46.52 190.109 46.52C190.749 46.52 191.33 46.6267 191.853 46.84C192.375 47.0427 192.797 47.3147 193.117 47.656L192.589 48.296C192.279 47.976 191.901 47.736 191.453 47.576C191.015 47.416 190.557 47.336 190.077 47.336C189.789 47.336 189.522 47.368 189.277 47.432C189.031 47.4853 188.813 47.576 188.621 47.704C188.439 47.832 188.295 47.9973 188.189 48.2C188.082 48.392 188.029 48.6213 188.029 48.888C188.029 49.112 188.066 49.2933 188.141 49.432C188.215 49.5707 188.338 49.6933 188.509 49.8C188.679 49.896 188.893 49.9867 189.149 50.072C189.415 50.1467 189.735 50.2267 190.109 50.312C190.642 50.44 191.111 50.568 191.517 50.696C191.922 50.824 192.258 50.9733 192.525 51.144C192.802 51.3147 193.01 51.5227 193.149 51.768C193.287 52.0133 193.357 52.312 193.357 52.664C193.357 53.432 193.063 54.04 192.477 54.488C191.89 54.936 191.101 55.16 190.109 55.16ZM201.274 55L197.882 46.664H199.002L201.866 53.992L204.746 46.664H205.802L202.41 55H201.274ZM209.202 55.16C208.808 55.16 208.44 55.096 208.098 54.968C207.768 54.8293 207.474 54.6427 207.218 54.408C206.973 54.1733 206.781 53.9013 206.642 53.592C206.504 53.272 206.434 52.9307 206.434 52.568C206.434 52.2053 206.52 51.8693 206.69 51.56C206.861 51.2507 207.101 50.984 207.41 50.76C207.72 50.536 208.088 50.3653 208.514 50.248C208.941 50.12 209.41 50.056 209.922 50.056C210.349 50.056 210.781 50.0933 211.218 50.168C211.656 50.2427 212.045 50.3493 212.386 50.488V49.736C212.386 49 212.178 48.4187 211.762 47.992C211.346 47.5547 210.77 47.336 210.034 47.336C209.608 47.336 209.17 47.4213 208.722 47.592C208.274 47.7627 207.821 48.008 207.362 48.328L206.978 47.608C208.056 46.8827 209.101 46.52 210.114 46.52C211.16 46.52 211.981 46.8133 212.578 47.4C213.176 47.9867 213.474 48.7973 213.474 49.832V53.592C213.474 53.8907 213.608 54.04 213.874 54.04V55C213.693 55.032 213.554 55.048 213.458 55.048C213.181 55.048 212.962 54.9787 212.802 54.84C212.653 54.7013 212.573 54.5093 212.562 54.264L212.53 53.608C212.146 54.1093 211.661 54.4933 211.074 54.76C210.498 55.0267 209.874 55.16 209.202 55.16ZM209.458 54.328C210.024 54.328 210.541 54.2213 211.01 54.008C211.49 53.7947 211.853 53.512 212.098 53.16C212.194 53.064 212.264 52.9627 212.306 52.856C212.36 52.7387 212.386 52.632 212.386 52.536V51.176C212.024 51.0373 211.645 50.9307 211.25 50.856C210.866 50.7813 210.472 50.744 210.066 50.744C209.298 50.744 208.674 50.904 208.194 51.224C207.714 51.544 207.474 51.9653 207.474 52.488C207.474 52.744 207.522 52.984 207.618 53.208C207.725 53.432 207.864 53.6293 208.034 53.8C208.216 53.96 208.429 54.088 208.674 54.184C208.92 54.28 209.181 54.328 209.458 54.328ZM215.873 43.32H216.961V53.112C216.961 53.4213 217.046 53.6667 217.217 53.848C217.388 54.0187 217.628 54.104 217.937 54.104C218.054 54.104 218.193 54.088 218.353 54.056C218.513 54.024 218.662 53.9813 218.801 53.928L218.993 54.808C218.79 54.8933 218.54 54.9627 218.241 55.016C217.953 55.0693 217.702 55.096 217.489 55.096C216.988 55.096 216.593 54.9573 216.305 54.68C216.017 54.392 215.873 53.992 215.873 53.48V43.32ZM222.792 55.16C221.886 55.16 221.208 54.8613 220.76 54.264C220.323 53.656 220.104 52.7547 220.104 51.56V46.664H221.192V51.368C221.192 53.256 221.838 54.2 223.128 54.2C223.448 54.2 223.763 54.1467 224.072 54.04C224.382 53.9333 224.664 53.7787 224.92 53.576C225.187 53.3733 225.422 53.1333 225.624 52.856C225.838 52.5787 226.008 52.264 226.136 51.912V46.664H227.224V53.592C227.224 53.8907 227.352 54.04 227.608 54.04V55C227.48 55.0213 227.374 55.032 227.288 55.032C227.214 55.032 227.16 55.032 227.128 55.032C226.872 55.0213 226.664 54.9307 226.504 54.76C226.344 54.5893 226.264 54.36 226.264 54.072V53.112C225.902 53.7627 225.406 54.2693 224.776 54.632C224.158 54.984 223.496 55.16 222.792 55.16ZM233.284 55.16C232.676 55.16 232.116 55.048 231.604 54.824C231.103 54.5893 230.666 54.2747 230.292 53.88C229.919 53.4747 229.626 53.0107 229.412 52.488C229.21 51.9653 229.108 51.4053 229.108 50.808C229.108 50.2213 229.21 49.672 229.412 49.16C229.626 48.6373 229.914 48.184 230.276 47.8C230.65 47.4053 231.092 47.096 231.604 46.872C232.116 46.6373 232.671 46.52 233.268 46.52C233.876 46.52 234.431 46.6373 234.932 46.872C235.444 47.096 235.882 47.4053 236.244 47.8C236.607 48.1947 236.89 48.648 237.092 49.16C237.295 49.672 237.396 50.216 237.396 50.792C237.396 50.8773 237.396 50.9627 237.396 51.048C237.396 51.1333 237.391 51.192 237.38 51.224H230.244C230.276 51.672 230.378 52.088 230.548 52.472C230.73 52.8453 230.959 53.1707 231.236 53.448C231.514 53.7253 231.828 53.944 232.18 54.104C232.543 54.2533 232.927 54.328 233.332 54.328C233.599 54.328 233.866 54.2907 234.132 54.216C234.399 54.1413 234.644 54.04 234.868 53.912C235.092 53.784 235.295 53.6293 235.476 53.448C235.658 53.256 235.796 53.048 235.892 52.824L236.836 53.08C236.708 53.3893 236.527 53.672 236.292 53.928C236.058 54.1733 235.786 54.392 235.476 54.584C235.167 54.7653 234.826 54.904 234.452 55C234.079 55.1067 233.69 55.16 233.284 55.16ZM236.356 50.392C236.324 49.944 236.218 49.5387 236.036 49.176C235.866 48.8027 235.642 48.4827 235.364 48.216C235.098 47.9493 234.783 47.7413 234.42 47.592C234.068 47.4427 233.69 47.368 233.284 47.368C232.879 47.368 232.495 47.4427 232.132 47.592C231.77 47.7413 231.45 47.9493 231.172 48.216C230.906 48.4827 230.687 48.8027 230.516 49.176C230.356 49.5493 230.26 49.9547 230.228 50.392H236.356Z"
      fill="white"/>
    <path fill-rule="evenodd" clip-rule="evenodd"
          d="M14.3321 29.2608C12.918 30.0846 11.4445 30.4965 9.91153 30.4965C8.48427 30.4965 7.16273 30.1976 5.94692 29.5997C4.7311 29.0018 3.68048 28.2046 2.79505 27.208C1.90962 26.2115 1.22242 25.0689 0.733453 23.7801C0.244484 22.4913 0 21.156 0 19.7741C0 18.3392 0.237877 16.9706 0.71363 15.6685C1.18938 14.3664 1.85015 13.2238 2.69594 12.2406C3.54172 11.2573 4.53948 10.4734 5.68922 9.88882C6.83895 9.3042 8.10102 9.0119 9.47542 9.0119C10.3741 9.0119 11.2199 9.14476 12.0128 9.4105C12.8057 9.67623 13.5458 10.0283 14.233 10.4668C14.9202 10.9053 15.5413 11.4168 16.0963 12.0014C16.6514 12.586 17.1271 13.2105 17.5236 13.8748V1.00001H19.5059V27.3077C19.5059 27.972 19.7834 28.3042 20.3385 28.3042V30.0979C20.1799 30.1245 20.0477 30.1444 19.942 30.1577C19.8363 30.171 19.7306 30.1776 19.6248 30.1776C19.0962 30.1776 18.6469 29.9717 18.2769 29.5598C17.9068 29.1479 17.7218 28.7161 17.7218 28.2643V25.9525C16.876 27.3343 15.7461 28.4371 14.3321 29.2608ZM7.03719 27.9853C8.02834 28.4636 9.10539 28.7028 10.2683 28.7028C10.982 28.7028 11.7485 28.5567 12.5678 28.2643C13.3872 27.972 14.1471 27.5668 14.8475 27.0486C15.5479 26.5304 16.1492 25.9392 16.6514 25.2748C17.1536 24.6105 17.4443 23.893 17.5236 23.1224V16.3063C17.2328 15.5622 16.8166 14.8514 16.2747 14.1738C15.7329 13.4962 15.1184 12.9115 14.4312 12.4199C13.744 11.9283 13.0039 11.5364 12.211 11.2441C11.4181 10.9518 10.6516 10.8056 9.91153 10.8056C8.72215 10.8056 7.63848 11.0647 6.66055 11.5829C5.68261 12.1011 4.85004 12.7787 4.16284 13.6157C3.47564 14.4528 2.94703 15.4094 2.577 16.4857C2.20697 17.5619 2.02195 18.6713 2.02195 19.814C2.02195 21.0098 2.2334 22.1392 2.65629 23.2021C3.07918 24.265 3.66727 25.2084 4.42054 26.0322C5.17382 26.856 6.04603 27.507 7.03719 27.9853ZM30.8843 30.4965C32.6023 30.4965 34.2014 30.1643 35.6815 29.5C37.1616 28.8357 38.3774 27.879 39.3289 26.6301V28.3441C39.3818 28.849 39.5668 29.2808 39.884 29.6395C40.2012 29.9983 40.6241 30.1776 41.1527 30.1776C41.2584 30.1776 41.3839 30.171 41.5293 30.1577C41.6747 30.1444 41.8134 30.1245 41.9456 30.0979V28.3042C41.3641 28.3042 41.0734 27.972 41.0734 27.3077V17.1832C41.0734 14.6322 40.3597 12.6325 38.9325 11.1843C37.5052 9.73602 35.5494 9.0119 33.0649 9.0119C30.6861 9.0119 28.1752 9.91539 25.5321 11.7224L26.2854 13.0776C27.4483 12.2804 28.5915 11.6692 29.7148 11.2441C30.8381 10.8189 31.9019 10.6063 32.9063 10.6063C34.8093 10.6063 36.3158 11.1843 37.4259 12.3402C38.536 13.4962 39.0911 15.0574 39.0911 17.0238V19.0567C38.1924 18.7112 37.1814 18.4388 36.0581 18.2395C34.9348 18.0402 33.8181 17.9406 32.708 17.9406C31.4394 17.9406 30.2764 18.0934 29.2192 18.399C28.162 18.7046 27.2567 19.1297 26.5034 19.6745C25.7502 20.2192 25.1621 20.8636 24.7392 21.6077C24.3163 22.3518 24.1048 23.1755 24.1048 24.079C24.1048 24.9825 24.2766 25.8262 24.6202 26.6101C24.9638 27.3941 25.4462 28.0717 26.0673 28.643C26.6884 29.2143 27.4087 29.6661 28.228 29.9983C29.0474 30.3304 29.9328 30.4965 30.8843 30.4965ZM29.1994 28.5234C29.8469 28.7759 30.5407 28.9021 31.2808 28.9021C32.8138 28.9021 34.2212 28.6098 35.5031 28.0252C36.785 27.4406 37.7695 26.6699 38.4567 25.7133C38.8796 25.1553 39.0911 24.6238 39.0911 24.1189V20.4518C38.1396 20.0797 37.1484 19.8007 36.1176 19.6147C35.0868 19.4287 34.0164 19.3357 32.9063 19.3357C31.8755 19.3357 30.9372 19.4486 30.0914 19.6745C29.2456 19.9004 28.5188 20.2126 27.9109 20.6112C27.303 21.0098 26.8338 21.4948 26.5034 22.0661C26.173 22.6374 26.0079 23.2685 26.0079 23.9594C26.0079 24.6504 26.14 25.3014 26.4043 25.9126C26.6686 26.5238 27.0387 27.0486 27.5144 27.4871C27.9902 27.9255 28.5518 28.271 29.1994 28.5234ZM51.6589 30.3371C52.2139 30.3371 52.7293 30.2839 53.2051 30.1776C53.6808 30.0713 54.1103 29.9518 54.4936 29.8189C54.8768 29.686 55.194 29.5465 55.4451 29.4004C55.6962 29.2542 55.8746 29.1546 55.9803 29.1014L55.3856 27.507C55.2535 27.5867 54.89 27.7661 54.2954 28.0451C53.7007 28.3241 52.9936 28.4636 52.1743 28.4636C51.5135 28.4636 50.9188 28.271 50.3902 27.8857C49.8616 27.5004 49.5973 26.9224 49.5973 26.1518V11.0049H54.3945V9.37064H49.5973V2.27553H47.615V9.37064H44.7208V11.0049H47.615V26.6301C47.615 27.2413 47.7207 27.7727 47.9322 28.2245C48.1436 28.6762 48.4343 29.0615 48.8044 29.3804C49.1744 29.6993 49.6039 29.9385 50.0929 30.0979C50.5818 30.2574 51.1038 30.3371 51.6589 30.3371ZM69.3411 29.5C67.8609 30.1643 66.2619 30.4965 64.5439 30.4965C63.5924 30.4965 62.7069 30.3304 61.8876 29.9983C61.0682 29.6661 60.348 29.2143 59.7269 28.643C59.1058 28.0717 58.6234 27.3941 58.2798 26.6101C57.9362 25.8262 57.7644 24.9825 57.7644 24.079C57.7644 23.1755 57.9758 22.3518 58.3987 21.6077C58.8216 20.8636 59.4097 20.2192 60.163 19.6745C60.9163 19.1297 61.8215 18.7046 62.8787 18.399C63.936 18.0934 65.0989 17.9406 66.3676 17.9406C67.4777 17.9406 68.5944 18.0402 69.7177 18.2395C70.841 18.4388 71.852 18.7112 72.7506 19.0567V17.0238C72.7506 15.0574 72.1956 13.4962 71.0855 12.3402C69.9754 11.1843 68.4688 10.6063 66.5658 10.6063C65.5615 10.6063 64.4976 10.8189 63.3743 11.2441C62.251 11.6692 61.1079 12.2804 59.9449 13.0776L59.1917 11.7224C61.8347 9.91539 64.3456 9.0119 66.7244 9.0119C69.2089 9.0119 71.1648 9.73602 72.592 11.1843C74.0193 12.6325 74.7329 14.6322 74.7329 17.1832V27.3077C74.7329 27.972 75.0237 28.3042 75.6051 28.3042V30.0979C75.473 30.1245 75.3342 30.1444 75.1889 30.1577C75.0435 30.171 74.9179 30.1776 74.8122 30.1776C74.2836 30.1776 73.8607 29.9983 73.5435 29.6395C73.2264 29.2808 73.0414 28.849 72.9885 28.3441V26.6301C72.037 27.879 70.8212 28.8357 69.3411 29.5ZM64.9403 28.9021C64.2003 28.9021 63.5065 28.7759 62.8589 28.5234C62.2114 28.271 61.6497 27.9255 61.174 27.4871C60.6982 27.0486 60.3282 26.5238 60.0639 25.9126C59.7996 25.3014 59.6674 24.6504 59.6674 23.9594C59.6674 23.2685 59.8326 22.6374 60.163 22.0661C60.4934 21.4948 60.9625 21.0098 61.5704 20.6112C62.1783 20.2126 62.9052 19.9004 63.751 19.6745C64.5967 19.4486 65.535 19.3357 66.5658 19.3357C67.6759 19.3357 68.7464 19.4287 69.7772 19.6147C70.808 19.8007 71.7991 20.0797 72.7506 20.4518V24.1189C72.7506 24.6238 72.5392 25.1553 72.1163 25.7133C71.4291 26.6699 70.4445 27.4406 69.1627 28.0252C67.8808 28.6098 66.4733 28.9021 64.9403 28.9021ZM138.979 29.6196C137.777 30.2042 136.475 30.4965 135.074 30.4965C133.462 30.4965 131.955 30.0713 130.555 29.221C129.154 28.3706 128.057 27.2811 127.264 25.9525V30.0979H125.44V1.00001H127.423V13.8748C128.401 12.4399 129.557 11.2706 130.892 10.3671C132.226 9.46364 133.766 9.0119 135.51 9.0119C136.964 9.0119 138.279 9.32413 139.455 9.94861C140.631 10.5731 141.623 11.3969 142.429 12.4199C143.235 13.443 143.856 14.599 144.292 15.8878C144.728 17.1766 144.946 18.4853 144.946 19.814C144.946 21.249 144.695 22.6108 144.193 23.8997C143.691 25.1885 142.997 26.3178 142.112 27.2878C141.226 28.2577 140.182 29.035 138.979 29.6196ZM134.678 28.7028C133.964 28.7028 133.198 28.5567 132.378 28.2643C131.559 27.972 130.799 27.5801 130.099 27.0885C129.398 26.5969 128.797 26.0122 128.295 25.3346C127.793 24.657 127.502 23.9329 127.423 23.1622V16.3063C127.766 15.5888 128.196 14.8979 128.711 14.2336C129.227 13.5692 129.808 12.9846 130.456 12.4797C131.103 11.9748 131.81 11.5696 132.577 11.264C133.343 10.9584 134.162 10.8056 135.035 10.8056C136.198 10.8056 137.261 11.058 138.226 11.5629C139.191 12.0678 140.023 12.7388 140.724 13.5759C141.424 14.4129 141.966 15.3696 142.349 16.4458C142.733 17.522 142.924 18.6448 142.924 19.814C142.924 20.9301 142.719 22.0196 142.31 23.0825C141.9 24.1455 141.332 25.0955 140.605 25.9325C139.878 26.7696 139.012 27.4406 138.008 27.9455C137.004 28.4504 135.894 28.7028 134.678 28.7028ZM151.686 17.1434V30.0979H149.704V9.37064H151.607V14.4727C152.32 13.0112 153.265 11.822 154.441 10.9053C155.618 9.98847 156.88 9.46364 158.228 9.33078C158.492 9.3042 158.73 9.29092 158.941 9.29092H159.457V11.1643C157.607 11.2175 155.988 11.7689 154.6 12.8185C153.212 13.8682 152.241 15.3098 151.686 17.1434ZM165.205 4.66714V1.00001H163.223V4.66714H165.205ZM165.205 9.37064V30.0979H163.223V9.37064H165.205ZM179.914 30.4965C181.447 30.4965 182.921 30.0846 184.335 29.2608C185.749 28.4371 186.879 27.3343 187.724 25.9525V28.2643C187.724 28.7161 187.909 29.1479 188.279 29.5598C188.649 29.9717 189.099 30.1776 189.627 30.1776C189.733 30.1776 189.839 30.171 189.945 30.1577C190.05 30.1444 190.182 30.1245 190.341 30.0979V28.3042C189.786 28.3042 189.508 27.972 189.508 27.3077V1.00001H187.526V13.8748C187.13 13.2105 186.654 12.586 186.099 12.0014C185.544 11.4168 184.923 10.9053 184.236 10.4668C183.548 10.0283 182.808 9.67623 182.015 9.4105C181.222 9.14476 180.377 9.0119 179.478 9.0119C178.104 9.0119 176.842 9.3042 175.692 9.88882C174.542 10.4734 173.544 11.2573 172.698 12.2406C171.853 13.2238 171.192 14.3664 170.716 15.6685C170.24 16.9706 170.003 18.3392 170.003 19.7741C170.003 21.156 170.247 22.4913 170.736 23.7801C171.225 25.0689 171.912 26.2115 172.798 27.208C173.683 28.2046 174.734 29.0018 175.949 29.5997C177.165 30.1976 178.487 30.4965 179.914 30.4965ZM177.04 27.9853C178.031 28.4636 179.108 28.7028 180.271 28.7028C180.985 28.7028 181.751 28.5567 182.57 28.2643C183.39 27.972 184.15 27.5668 184.85 27.0486C185.55 26.5304 186.152 25.9392 186.654 25.2748C187.156 24.6105 187.447 23.893 187.526 23.1224V16.3063C187.235 15.5622 186.819 14.8514 186.277 14.1738C185.735 13.4962 185.121 12.9115 184.434 12.4199C183.747 11.9283 183.006 11.5364 182.214 11.2441C181.421 10.9518 180.654 10.8056 179.914 10.8056C178.725 10.8056 177.641 11.0647 176.663 11.5829C175.685 12.1011 174.853 12.7787 174.165 13.6157C173.478 14.4528 172.95 15.4094 172.58 16.4857C172.21 17.5619 172.025 18.6713 172.025 19.814C172.025 21.0098 172.236 22.1392 172.659 23.2021C173.082 24.265 173.67 25.2084 174.423 26.0322C175.176 26.856 176.049 27.507 177.04 27.9853ZM204.178 38.9867C205.473 38.9867 206.708 38.8074 207.884 38.4486C209.061 38.0899 210.091 37.5584 210.977 36.8542C211.862 36.15 212.569 35.2664 213.098 34.2035C213.626 33.1406 213.891 31.9049 213.891 30.4965V9.37064H212.067V13.8748C211.142 12.5196 210.012 11.3703 208.677 10.4269C207.343 9.48357 205.777 9.0119 203.979 9.0119C202.552 9.0119 201.25 9.3042 200.074 9.88882C198.898 10.4734 197.887 11.264 197.041 12.2605C196.195 13.257 195.541 14.4063 195.079 15.7084C194.616 17.0105 194.385 18.3657 194.385 19.7741C194.385 21.1294 194.629 22.4448 195.118 23.7203C195.607 24.9958 196.281 26.1318 197.14 27.1283C197.999 28.1248 199.024 28.922 200.213 29.5199C201.402 30.1178 202.711 30.4168 204.138 30.4168C205.671 30.4168 207.138 30.0115 208.539 29.2011C209.939 28.3906 211.063 27.3077 211.909 25.9525V30.4965C211.909 31.6392 211.704 32.6357 211.294 33.486C210.884 34.3364 210.329 35.0472 209.629 35.6185C208.928 36.1899 208.109 36.6217 207.171 36.914C206.232 37.2063 205.235 37.3525 204.178 37.3525C202.592 37.3525 201.098 37.0269 199.697 36.3759C198.297 35.7248 197.187 34.6951 196.367 33.2867L195.019 34.2035C195.442 34.921 195.938 35.5787 196.506 36.1766C197.074 36.7745 197.722 37.2794 198.449 37.6913C199.175 38.1032 200.015 38.422 200.966 38.6479C201.918 38.8738 202.988 38.9867 204.178 38.9867ZM201.402 27.9853C202.407 28.4636 203.477 28.7028 204.614 28.7028C205.486 28.7028 206.338 28.5367 207.171 28.2046C208.003 27.8724 208.757 27.4406 209.431 26.9091C210.105 26.3776 210.66 25.7797 211.096 25.1154C211.532 24.4511 211.803 23.7867 211.908 23.1224V16.3063C211.591 15.5091 211.168 14.7717 210.64 14.0941C210.111 13.4164 209.51 12.8385 208.836 12.3601C208.162 11.8818 207.435 11.5032 206.655 11.2241C205.876 10.9451 205.089 10.8056 204.296 10.8056C203.054 10.8056 201.944 11.0713 200.966 11.6028C199.988 12.1343 199.162 12.8252 198.488 13.6755C197.814 14.5259 197.299 15.4892 196.942 16.5654C196.585 17.6416 196.407 18.7245 196.407 19.814C196.407 21.0098 196.618 22.1392 197.041 23.2021C197.464 24.265 198.046 25.2084 198.786 26.0322C199.526 26.856 200.398 27.507 201.402 27.9853ZM228.837 30.4965C229.789 30.4965 230.714 30.3703 231.613 30.1178C232.511 29.8654 233.337 29.5133 234.09 29.0615C234.844 28.6098 235.505 28.0717 236.073 27.4472C236.641 26.8227 237.071 26.1385 237.361 25.3944L235.617 24.9161C235.353 25.5007 234.989 26.0388 234.527 26.5304C234.064 27.022 233.535 27.4406 232.941 27.786C232.346 28.1315 231.705 28.4039 231.018 28.6032C230.331 28.8025 229.63 28.9021 228.917 28.9021C227.833 28.9021 226.815 28.6895 225.864 28.2643C224.912 27.8392 224.073 27.2546 223.346 26.5105C222.62 25.7664 222.018 24.8829 221.542 23.8598C221.067 22.8367 220.789 21.7273 220.71 20.5315H238.789C238.815 20.4783 238.828 20.3521 238.828 20.1528V19.6546C238.828 18.2196 238.577 16.8577 238.075 15.5689C237.573 14.2801 236.872 13.1507 235.974 12.1808C235.075 11.2108 234.005 10.4402 232.762 9.86889C231.52 9.29756 230.172 9.0119 228.718 9.0119C227.291 9.0119 225.963 9.29092 224.734 9.84896C223.505 10.407 222.441 11.171 221.542 12.1409C220.644 13.1108 219.937 14.2402 219.421 15.529C218.906 16.8178 218.648 18.193 218.648 19.6546C218.648 21.1427 218.906 22.5378 219.421 23.8399C219.937 25.142 220.65 26.2913 221.562 27.2878C222.474 28.2843 223.551 29.0682 224.793 29.6395C226.036 30.2108 227.384 30.4965 228.837 30.4965ZM220.67 18.9371H236.925C236.846 17.7147 236.575 16.5986 236.112 15.5888C235.65 14.579 235.055 13.7087 234.328 12.978C233.602 12.2472 232.762 11.6759 231.811 11.264C230.859 10.8521 229.842 10.6462 228.758 10.6462C227.674 10.6462 226.657 10.8521 225.705 11.264C224.754 11.6759 223.915 12.2472 223.188 12.978C222.461 13.7087 221.88 14.5857 221.443 15.6087C221.007 16.6318 220.75 17.7413 220.67 18.9371Z"
          fill="white"/>
    <path fill-rule="evenodd" clip-rule="evenodd"
          d="M99.5118 1.79721L80.997 30.0979H78.7372L97.2123 1.79721H99.5118ZM104.031 1.79721L121.277 30.0979H118.978L101.692 1.79721H104.031Z"
          fill="#F1C232"/>
  </g>
  <defs>
    <clipPath id="clip0">
      <rect width="239" height="58" fill="white" transform="translate(0 1.00001)"/>
    </clipPath>
  </defs>
</svg>
